<?xml version="1.0" encoding="utf-8"?>
<!-- Generator: Adobe Illustrator 17.0.0, SVG Export Plug-In . SVG Version: 6.00 Build 0)  -->
<!DOCTYPE svg PUBLIC "-//W3C//DTD SVG 1.1//EN" "http://www.w3.org/Graphics/SVG/1.1/DTD/svg11.dtd">
<svg version="1.1" id="Layer_1" xmlns="http://www.w3.org/2000/svg" xmlns:xlink="http://www.w3.org/1999/xlink" x="0px" y="0px"
	 width="291.943px" height="83.152px" viewBox="0 0 291.943 83.152" enable-background="new 0 0 291.943 83.152"
	 xml:space="preserve">
<g>
	<linearGradient id="SVGID_1_" gradientUnits="userSpaceOnUse" x1="65.6697" y1="45.528" x2="523.0121" y2="45.528">
		<stop  offset="0" style="stop-color:#2ADEEC"/>
		<stop  offset="0.4715" style="stop-color:#25B8EB"/>
		<stop  offset="1" style="stop-color:#1F92EA"/>
	</linearGradient>
	<path fill="url(#SVGID_1_)" d="M99.667,61.322c-0.38,0.104-0.976,0.208-1.787,0.311c-0.811,0.104-1.614,0.155-2.408,0.155
		c-0.795,0-1.493-0.06-2.097-0.181c-0.604-0.121-1.113-0.336-1.528-0.647c-0.414-0.311-0.725-0.742-0.932-1.295
		c-0.208-0.552-0.311-1.277-0.311-2.175V33.099c0-0.725,0.198-1.286,0.595-1.683c0.396-0.396,0.94-0.715,1.631-0.957
		c1.174-0.415,2.512-0.716,4.014-0.907c1.502-0.189,3.012-0.284,4.531-0.284c4.764,0,8.407,1.018,10.927,3.055
		c2.519,2.037,3.78,4.799,3.78,8.285c0,1.692-0.268,3.22-0.803,4.583c-0.536,1.365-1.33,2.538-2.383,3.522
		c-1.053,0.984-2.382,1.744-3.987,2.278c-1.605,0.536-3.462,0.803-5.567,0.803h-3.677V61.322z M102.361,44.699
		c1.45,0,2.562-0.336,3.34-1.009c0.777-0.674,1.165-1.7,1.165-3.082c0-1.311-0.405-2.32-1.217-3.029
		c-0.811-0.707-1.993-1.061-3.547-1.061c-0.552,0-1.009,0.009-1.372,0.026c-0.362,0.018-0.734,0.061-1.112,0.13v8.026H102.361z"/>
	<linearGradient id="SVGID_2_" gradientUnits="userSpaceOnUse" x1="65.6697" y1="48.9715" x2="523.0121" y2="48.9715">
		<stop  offset="0" style="stop-color:#2ADEEC"/>
		<stop  offset="0.4715" style="stop-color:#25B8EB"/>
		<stop  offset="1" style="stop-color:#1F92EA"/>
	</linearGradient>
	<path fill="url(#SVGID_2_)" d="M129.858,35.585c1.864,0,3.564,0.19,5.1,0.57c1.536,0.381,2.848,0.958,3.936,1.735
		c1.087,0.776,1.924,1.761,2.511,2.951c0.586,1.191,0.88,2.599,0.88,4.221v11.6c0,0.898-0.251,1.631-0.75,2.201
		c-0.501,0.57-1.097,1.061-1.786,1.476c-2.245,1.347-5.404,2.019-9.477,2.019c-1.831,0-3.478-0.173-4.945-0.517
		c-1.468-0.345-2.728-0.863-3.78-1.553c-1.053-0.691-1.864-1.571-2.434-2.641c-0.57-1.07-0.855-2.313-0.855-3.728
		c0-2.383,0.707-4.212,2.123-5.49c1.415-1.276,3.607-2.071,6.577-2.382l6.784-0.725v-0.363c0-1-0.44-1.716-1.32-2.148
		c-0.88-0.432-2.149-0.647-3.807-0.647c-1.312,0-2.589,0.138-3.831,0.414c-1.242,0.276-2.365,0.622-3.366,1.036
		c-0.449-0.311-0.828-0.785-1.139-1.425c-0.311-0.638-0.466-1.302-0.466-1.994c0-0.897,0.215-1.613,0.647-2.148
		c0.432-0.535,1.096-0.993,1.994-1.372c1-0.38,2.183-0.656,3.547-0.829C127.364,35.672,128.649,35.585,129.858,35.585z
		 M130.273,55.937c0.586,0,1.234-0.06,1.942-0.182c0.707-0.12,1.234-0.284,1.58-0.492v-4.142l-3.729,0.311
		c-0.966,0.069-1.76,0.276-2.382,0.621c-0.622,0.346-0.933,0.864-0.933,1.554c0,0.691,0.268,1.251,0.803,1.683
		C128.089,55.722,128.995,55.937,130.273,55.937z"/>
	<linearGradient id="SVGID_3_" gradientUnits="userSpaceOnUse" x1="65.6697" y1="53.2699" x2="523.0121" y2="53.2699">
		<stop  offset="0" style="stop-color:#2ADEEC"/>
		<stop  offset="0.4715" style="stop-color:#25B8EB"/>
		<stop  offset="1" style="stop-color:#1F92EA"/>
	</linearGradient>
	<path fill="url(#SVGID_3_)" d="M150.985,55.108c-0.38-0.862-0.785-1.829-1.217-2.9c-0.432-1.069-0.88-2.295-1.347-3.676
		c-0.465-1.38-0.949-2.96-1.45-4.739c-0.501-1.778-1.027-3.823-1.579-6.136c0.483-0.483,1.13-0.906,1.942-1.269
		c0.811-0.362,1.7-0.544,2.667-0.544c1.208,0,2.209,0.251,3.003,0.751c0.794,0.501,1.381,1.441,1.761,2.822l4.091,14.24h0.207
		c0.415-1.173,0.82-2.45,1.218-3.832c0.396-1.38,0.784-2.805,1.165-4.272c0.38-1.467,0.733-2.934,1.062-4.402
		c0.328-1.467,0.613-2.908,0.855-4.323c1.242-0.656,2.606-0.985,4.09-0.985c1.209,0,2.209,0.26,3.004,0.777
		c0.794,0.518,1.191,1.416,1.191,2.693c0,0.933-0.122,2.012-0.363,3.237c-0.242,1.226-0.562,2.529-0.958,3.909
		c-0.397,1.381-0.864,2.806-1.398,4.272c-0.536,1.468-1.097,2.909-1.683,4.324c-0.587,1.416-1.191,2.753-1.813,4.013
		c-0.621,1.261-1.226,2.391-1.812,3.393c-0.967,1.691-1.864,3.072-2.692,4.142c-0.829,1.069-1.623,1.907-2.383,2.511
		c-0.759,0.604-1.52,1.018-2.278,1.243c-0.761,0.223-1.554,0.336-2.383,0.336c-1.45,0-2.624-0.433-3.521-1.295
		c-0.899-0.864-1.433-1.986-1.605-3.366c1.104-0.864,2.208-1.822,3.314-2.874c1.104-1.054,2.105-2.131,3.003-3.237
		c-0.587-0.172-1.217-0.577-1.89-1.217C152.513,58.069,151.779,56.869,150.985,55.108z"/>
	<linearGradient id="SVGID_4_" gradientUnits="userSpaceOnUse" x1="65.6697" y1="44.1558" x2="523.0121" y2="44.1558">
		<stop  offset="0" style="stop-color:#2ADEEC"/>
		<stop  offset="0.4715" style="stop-color:#25B8EB"/>
		<stop  offset="1" style="stop-color:#1F92EA"/>
	</linearGradient>
	<path fill="url(#SVGID_4_)" d="M175.687,36.362c0-1.761,0.301-3.271,0.906-4.531c0.604-1.26,1.424-2.296,2.459-3.108
		c1.036-0.81,2.253-1.407,3.652-1.786c1.398-0.38,2.891-0.57,4.479-0.57c2.555,0,4.436,0.336,5.645,1.009
		c1.208,0.674,1.813,1.822,1.813,3.444c0,0.692-0.148,1.312-0.441,1.864c-0.293,0.553-0.613,0.967-0.958,1.243
		c-0.656-0.173-1.338-0.319-2.045-0.441c-0.708-0.12-1.528-0.181-2.459-0.181c-1.485,0-2.641,0.251-3.47,0.751
		c-0.829,0.501-1.243,1.372-1.243,2.616v1.657h8.493c0.208,0.381,0.406,0.855,0.596,1.424c0.189,0.57,0.284,1.2,0.284,1.89
		c0,1.209-0.268,2.081-0.803,2.616c-0.535,0.535-1.251,0.803-2.148,0.803h-5.955v16.415c-0.345,0.104-0.889,0.208-1.631,0.311
		c-0.743,0.103-1.511,0.156-2.305,0.156c-0.76,0-1.442-0.052-2.045-0.156c-0.605-0.103-1.113-0.311-1.528-0.621
		c-0.414-0.311-0.734-0.734-0.958-1.269c-0.225-0.535-0.336-1.235-0.336-2.097V36.362z M206.81,61.477
		c-0.381,0.069-0.941,0.164-1.683,0.285c-0.743,0.12-1.494,0.181-2.253,0.181c-0.76,0-1.442-0.052-2.045-0.156
		c-0.605-0.103-1.113-0.311-1.528-0.621c-0.415-0.311-0.734-0.734-0.958-1.269c-0.225-0.535-0.336-1.235-0.336-2.097V27.766
		c0.379-0.069,0.939-0.163,1.682-0.284c0.743-0.121,1.493-0.182,2.253-0.182c0.759,0,1.441,0.052,2.046,0.155
		c0.603,0.104,1.113,0.311,1.528,0.622c0.414,0.311,0.733,0.734,0.958,1.269c0.223,0.535,0.336,1.235,0.336,2.097V61.477z"/>
	<linearGradient id="SVGID_5_" gradientUnits="userSpaceOnUse" x1="65.6697" y1="48.9715" x2="523.0121" y2="48.9715">
		<stop  offset="0" style="stop-color:#2ADEEC"/>
		<stop  offset="0.4715" style="stop-color:#25B8EB"/>
		<stop  offset="1" style="stop-color:#1F92EA"/>
	</linearGradient>
	<path fill="url(#SVGID_5_)" d="M225.659,62.358c-2.038,0-3.927-0.284-5.67-0.854c-1.743-0.57-3.262-1.424-4.557-2.563
		c-1.295-1.139-2.314-2.571-3.055-4.298c-0.743-1.727-1.114-3.746-1.114-6.06c0-2.278,0.371-4.237,1.114-5.877
		c0.742-1.64,1.716-2.986,2.925-4.04c1.208-1.053,2.589-1.829,4.142-2.331c1.554-0.5,3.141-0.75,4.764-0.75
		c1.83,0,3.496,0.276,4.997,0.828c1.501,0.553,2.796,1.313,3.884,2.279c1.088,0.967,1.934,2.123,2.538,3.469
		c0.604,1.346,0.907,2.814,0.907,4.401c0,1.175-0.329,2.072-0.986,2.693c-0.655,0.621-1.57,1.018-2.745,1.191l-12.79,1.915
		c0.38,1.139,1.157,1.994,2.33,2.564s2.519,0.855,4.038,0.855c1.416,0,2.754-0.182,4.014-0.544c1.261-0.363,2.288-0.785,3.081-1.269
		c0.553,0.345,1.019,0.828,1.399,1.45c0.38,0.622,0.571,1.278,0.571,1.969c0,1.553-0.726,2.71-2.176,3.469
		c-1.106,0.587-2.347,0.984-3.728,1.19C228.161,62.255,226.867,62.358,225.659,62.358z M224.209,42.007
		c-0.828,0-1.545,0.138-2.148,0.414c-0.605,0.277-1.097,0.631-1.476,1.062c-0.381,0.432-0.666,0.915-0.855,1.45
		c-0.19,0.536-0.303,1.079-0.336,1.631l8.854-1.45c-0.104-0.69-0.484-1.38-1.139-2.071
		C226.452,42.352,225.486,42.007,224.209,42.007z"/>
	<linearGradient id="SVGID_6_" gradientUnits="userSpaceOnUse" x1="65.6697" y1="49.0492" x2="523.0121" y2="49.0492">
		<stop  offset="0" style="stop-color:#2ADEEC"/>
		<stop  offset="0.4715" style="stop-color:#25B8EB"/>
		<stop  offset="1" style="stop-color:#1F92EA"/>
	</linearGradient>
	<path fill="url(#SVGID_6_)" d="M239.124,40.454c0.276-1.312,0.821-2.383,1.631-3.211c0.811-0.829,1.822-1.243,3.03-1.243
		c1.139,0,2.019,0.277,2.64,0.829c0.622,0.552,1.312,1.329,2.072,2.329l3.315,4.35l5.54-7.509c1.899,0,3.4,0.336,4.505,1.01
		c1.104,0.673,1.657,1.579,1.657,2.719c0,0.449-0.061,0.854-0.181,1.217c-0.122,0.362-0.303,0.734-0.543,1.113
		c-0.242,0.381-0.553,0.811-0.933,1.295c-0.38,0.483-0.828,1.053-1.346,1.709l-3.419,3.831l6.786,8.959
		c-0.173,1.313-0.693,2.348-1.554,3.108c-0.864,0.759-1.899,1.139-3.107,1.139c-1.312-0.034-2.357-0.414-3.134-1.139
		c-0.777-0.725-1.527-1.605-2.253-2.641l-2.796-3.987l-5.283,7.612c-0.173,0-0.362,0.008-0.569,0.026
		c-0.209,0.018-0.382,0.027-0.52,0.027c-1.761,0-3.099-0.363-4.012-1.088c-0.917-0.725-1.373-1.622-1.373-2.692
		c0-0.828,0.199-1.562,0.596-2.201c0.395-0.638,1.078-1.51,2.044-2.616l4.144-4.816L239.124,40.454z"/>
	<linearGradient id="SVGID_7_" gradientUnits="userSpaceOnUse" x1="65.6697" y1="53.2699" x2="523.0121" y2="53.2699">
		<stop  offset="0" style="stop-color:#2ADEEC"/>
		<stop  offset="0.4715" style="stop-color:#25B8EB"/>
		<stop  offset="1" style="stop-color:#1F92EA"/>
	</linearGradient>
	<path fill="url(#SVGID_7_)" d="M271.282,55.108c-0.38-0.862-0.785-1.829-1.216-2.9c-0.433-1.069-0.881-2.295-1.348-3.676
		c-0.466-1.38-0.95-2.96-1.45-4.739c-0.5-1.778-1.027-3.823-1.58-6.136c0.484-0.483,1.131-0.906,1.942-1.269
		c0.813-0.362,1.702-0.544,2.668-0.544c1.208,0,2.209,0.251,3.004,0.751c0.793,0.501,1.379,1.441,1.761,2.822l4.09,14.24h0.207
		c0.415-1.173,0.82-2.45,1.218-3.832c0.395-1.38,0.785-2.805,1.165-4.272c0.38-1.467,0.734-2.934,1.063-4.402
		c0.327-1.467,0.612-2.908,0.854-4.323c1.243-0.656,2.607-0.985,4.09-0.985c1.208,0,2.209,0.26,3.004,0.777
		c0.793,0.518,1.19,1.416,1.19,2.693c0,0.933-0.12,2.012-0.362,3.237c-0.242,1.226-0.561,2.529-0.958,3.909
		c-0.397,1.381-0.864,2.806-1.399,4.272c-0.535,1.468-1.096,2.909-1.682,4.324c-0.588,1.416-1.19,2.753-1.812,4.013
		c-0.622,1.261-1.226,2.391-1.814,3.393c-0.966,1.691-1.863,3.072-2.691,4.142c-0.828,1.069-1.623,1.907-2.383,2.511
		c-0.76,0.604-1.519,1.018-2.278,1.243c-0.759,0.223-1.554,0.336-2.383,0.336c-1.45,0-2.624-0.433-3.522-1.295
		c-0.897-0.864-1.432-1.986-1.605-3.366c1.106-0.864,2.209-1.822,3.315-2.874c1.104-1.054,2.105-2.131,3.002-3.237
		c-0.586-0.172-1.216-0.577-1.889-1.217C272.81,58.069,272.076,56.869,271.282,55.108z"/>
</g>
<linearGradient id="SVGID_8_" gradientUnits="userSpaceOnUse" x1="77.5198" y1="13.1923" x2="6.6902" y2="81.2765">
	<stop  offset="0" style="stop-color:#2ADEB0"/>
	<stop  offset="0.0322" style="stop-color:#29D9B3"/>
	<stop  offset="1" style="stop-color:#1551FF"/>
</linearGradient>
<path fill="url(#SVGID_8_)" d="M46.636,5.626c0,0,37.136-13.128,35.929,0.723c-0.092,1.06-3.72,11.87-4.233,12.802
	c-2.45,4.455-7.84,11.753-11.243,18.145c-2.227,4.182-1.708,9.541-1.678,10.771c0.155,6.187,1.476,20.597-0.752,26.471
	c0,0-4.032,17.315-30.834,2.846c0,0-26.201-15.169-30.866-25.145c-0.132-0.283-0.277-0.556-0.453-0.814
	C1.147,49.436-4.863,39.089,8.645,28.5c0.181-0.142,0.372-0.277,0.564-0.404C12.393,25.996,41.264,6.969,46.636,5.626z"/>
<linearGradient id="SVGID_9_" gradientUnits="userSpaceOnUse" x1="99.1746" y1="11.149" x2="14.0693" y2="60.0159">
	<stop  offset="0" style="stop-color:#2ADEB0"/>
	<stop  offset="0.0322" style="stop-color:#29D9B3"/>
	<stop  offset="1" style="stop-color:#1551FF"/>
</linearGradient>
<path fill="url(#SVGID_9_)" d="M55.179,13.655c8.562,0.113,10.14-9.238-1.857-9.391c-2.786-0.036-2.819,0.068-1.748-0.269
	c15.81-4.982,35.75-7.544,30.825,6.023c-0.03,0.083-0.053,0.167-0.068,0.254C82.143,11.352,80.243,19.884,65,37.664
	c-5.384,6.28-9.445,13.615-12.136,21.448c-1.696,4.938-2.906,10.324-2.484,15.003c0.074,0.822-0.48,1.562-1.291,1.714
	c-1.702,0.318-4.757,0.354-8.378-2c-4.565-2.966-7.296-8.089-7.456-13.548c-0.348-11.905,6.61-31.364-7.56-37.654
	c-0.16-0.071-7.225-0.585-7.225-0.585c0.035-0.017,1.31-0.86,2.384-1.514C29.221,15.431,27.472,13.291,55.179,13.655z"/>
<linearGradient id="SVGID_10_" gradientUnits="userSpaceOnUse" x1="39.9638" y1="48.9358" x2="4.0273" y2="85.2282">
	<stop  offset="0" style="stop-color:#2ADEB0"/>
	<stop  offset="0.0322" style="stop-color:#29D9B3"/>
	<stop  offset="1" style="stop-color:#1551FF"/>
</linearGradient>
<path fill="url(#SVGID_10_)" d="M4.48,32.349c0,0,15.084-18.298,26.097-6.475c2.504,2.688,3.678,6.222,4.124,9.868
	c1.801,14.723,2.446,29.347,14.238,40.145c15.191,13.91,16.72-6.078,16.72-6.078s-2.078,25.295-32.46,6.81
	c0,0-14.55-5.857-18.668-32.486C13.439,37.073,10.287,30.51,4.48,32.349z"/>
</svg>
